<svg width="51" height="48" viewBox="0 0 51 48" fill="none" xmlns="http://www.w3.org/2000/svg">
<mask id="mask0_507_88" style="mask-type:alpha" maskUnits="userSpaceOnUse" x="0" y="0" width="51" height="48">
<rect width="51" height="48" fill="#D9D9D9"/>
</mask>
<g mask="url(#mask0_507_88)">
<path d="M10.3465 10.1117C10.1221 10.1117 9.93384 10.009 9.78163 9.80353C9.62977 9.59856 9.55383 9.34441 9.55383 9.04108C9.55383 8.73774 9.62977 8.4884 9.78163 8.29304C9.93384 8.09768 10.1221 8 10.3465 8H41.7458C41.9701 8 42.1584 8.10248 42.3106 8.30745C42.4625 8.51287 42.5384 8.76725 42.5384 9.07059C42.5384 9.37392 42.4625 9.62327 42.3106 9.81863C42.1584 10.014 41.9701 10.1117 41.7458 10.1117H10.3465ZM10.3465 40.9412C10.1221 40.9412 9.93384 40.8387 9.78163 40.6337C9.62977 40.4283 9.55383 40.1739 9.55383 39.8706C9.55383 39.5673 9.62977 39.3179 9.78163 39.1226C9.93384 38.9272 10.1221 38.8295 10.3465 38.8295H41.7458C41.9701 38.8295 42.1584 38.9322 42.3106 39.1376C42.4625 39.3426 42.5384 39.5968 42.5384 39.9001C42.5384 40.2034 42.4625 40.4528 42.3106 40.6481C42.1584 40.8435 41.9701 40.9412 41.7458 40.9412H10.3465ZM10.3465 25.5261C10.1221 25.5261 9.93384 25.4236 9.78163 25.2186C9.62977 25.0132 9.55383 24.7588 9.55383 24.4555C9.55383 24.1522 9.62977 23.9028 9.78163 23.7075C9.93384 23.5125 10.1221 23.4151 10.3465 23.4151H41.7458C41.9701 23.4151 42.1584 23.5176 42.3106 23.7226C42.4625 23.928 42.5384 24.1824 42.5384 24.4857C42.5384 24.789 42.4625 25.0384 42.3106 25.2337C42.1584 25.4286 41.9701 25.5261 41.7458 25.5261H10.3465Z" fill="#D7541E"/>
</g>
</svg>
