<svg width="96" height="96" viewBox="0 0 96 96" fill="none" xmlns="http://www.w3.org/2000/svg">
<g filter="url(#filter0_d_366_349)">
<path d="M43.1603 57.4556L59.6924 46.843C60.3581 46.4151 60.6909 45.8036 60.6909 45.0084C60.6909 44.2126 60.3581 43.5954 59.6924 43.157L43.1603 32.5444C42.3862 32.0357 41.6178 31.998 40.8549 32.4315C40.0914 32.865 39.7097 33.517 39.7097 34.3874V55.6126C39.7097 56.483 40.0914 57.135 40.8549 57.5685C41.6178 58.002 42.3862 57.9643 43.1603 57.4556ZM48.0137 83C42.7754 83 37.8568 82.0029 33.2581 80.0086C28.6594 78.0143 24.6314 75.2902 21.1741 71.8364C17.7168 68.3827 14.9903 64.3585 12.9946 59.7641C10.9982 55.1696 10 50.2528 10 45.0137C10 39.7592 10.9971 34.8188 12.9914 30.1927C14.9857 25.5672 17.7098 21.5434 21.1636 18.1213C24.6173 14.6992 28.6415 11.9903 33.2359 9.99461C37.8304 7.9982 42.7472 7 47.9863 7C53.2408 7 58.1812 7.99715 62.8073 9.99145C67.4328 11.9857 71.4566 14.6922 74.8787 18.1108C78.3008 21.5294 81.0097 25.5496 83.0054 30.1716C85.0018 34.7928 86 39.731 86 44.9863C86 50.2246 85.0028 55.1432 83.0086 59.7419C81.0143 64.3406 78.3078 68.3686 74.8892 71.8259C71.4706 75.2832 67.4504 78.0097 62.8284 80.0054C58.2072 82.0018 53.269 83 48.0137 83ZM48 79.7521C57.6675 79.7521 65.8765 76.3729 72.6272 69.6145C79.3771 62.8561 82.7521 54.6513 82.7521 45C82.7521 35.3325 79.3771 27.1235 72.6272 20.3728C65.8765 13.6229 57.6675 10.2479 48 10.2479C38.3487 10.2479 30.1439 13.6229 23.3855 20.3728C16.6271 27.1235 13.2479 35.3325 13.2479 45C13.2479 54.6513 16.6271 62.8561 23.3855 69.6145C30.1439 76.3729 38.3487 79.7521 48 79.7521Z" fill="url(#paint0_linear_366_349)"/>
<path d="M47.9863 6C53.371 6.00001 58.4466 7.02275 63.2031 9.07324C67.9396 11.1154 72.0699 13.8919 75.585 17.4033C79.1002 20.9149 81.8801 25.0422 83.9238 29.7754C85.9766 34.5272 87 39.601 87 44.9863C87 50.3553 85.977 55.4097 83.9258 60.1396C81.8838 64.8484 79.109 68.9812 75.6006 72.5293C72.0887 76.081 67.96 78.8791 63.2246 80.9238C58.4728 82.9766 53.399 84 48.0137 84C42.6447 84 37.5903 82.977 32.8604 80.9258C28.1495 78.8829 24.0162 76.0887 20.4678 72.5439C16.9193 68.9991 14.1217 64.869 12.0771 60.1621C10.0237 55.4363 9 50.3833 9 45.0137C9.00001 39.629 10.0227 34.5534 12.0732 29.7969C14.1164 25.0582 16.912 20.9266 20.46 17.4111C24.0045 13.8991 28.1332 11.1207 32.8379 9.07715C37.5637 7.02374 42.6167 6 47.9863 6ZM48 11.248C38.6106 11.248 30.6605 14.5196 24.0918 21.0801C17.5238 27.6406 14.248 35.5944 14.248 45C14.248 54.389 17.524 62.3384 24.0928 68.9072C30.6616 75.476 38.611 78.752 48 78.752C57.4056 78.752 65.3594 75.4762 71.9199 68.9082C78.4804 62.3395 81.752 54.3894 81.752 45C81.752 35.594 78.4797 27.6405 71.9199 21.0801C65.3595 14.5203 57.406 11.248 48 11.248ZM42.0527 31.1357C42.6484 31.165 43.2043 31.3766 43.71 31.709H43.709L60.2324 42.3154L60.2422 42.3223C61.1882 42.9453 61.6914 43.876 61.6914 45.0088C61.6913 46.1421 61.1869 47.0717 60.2334 47.6846H60.2324L43.709 58.29L43.71 58.291C43.2043 58.6234 42.6484 58.835 42.0527 58.8643C41.4536 58.8936 40.8839 58.7353 40.3613 58.4385C39.2882 57.8292 38.71 56.8465 38.71 55.6123V34.3877C38.71 33.2306 39.2182 32.2951 40.166 31.6807L40.3613 31.5615C40.8839 31.2647 41.4536 31.1064 42.0527 31.1357Z" stroke="white" stroke-width="2"/>
</g>
<defs>
<filter id="filter0_d_366_349" x="0" y="0" width="96" height="96" filterUnits="userSpaceOnUse" color-interpolation-filters="sRGB">
<feFlood flood-opacity="0" result="BackgroundImageFix"/>
<feColorMatrix in="SourceAlpha" type="matrix" values="0 0 0 0 0 0 0 0 0 0 0 0 0 0 0 0 0 0 127 0" result="hardAlpha"/>
<feOffset dy="3"/>
<feGaussianBlur stdDeviation="4"/>
<feComposite in2="hardAlpha" operator="out"/>
<feColorMatrix type="matrix" values="0 0 0 0 0 0 0 0 0 0 0 0 0 0 0 0 0 0 1 0"/>
<feBlend mode="normal" in2="BackgroundImageFix" result="effect1_dropShadow_366_349"/>
<feBlend mode="normal" in="SourceGraphic" in2="effect1_dropShadow_366_349" result="shape"/>
</filter>
<linearGradient id="paint0_linear_366_349" x1="48" y1="83" x2="48" y2="2" gradientUnits="userSpaceOnUse">
<stop stop-color="#2AB0E7"/>
<stop offset="1" stop-color="#176281"/>
</linearGradient>
</defs>
</svg>
