<svg preserveAspectRatio="none" width="100%" height="100%" overflow="visible" style="display: block;" viewBox="0 0 100 110" fill="none" xmlns="http://www.w3.org/2000/svg">
<g id="play_circle">
<g id="play_circle_2" filter="url(#filter0_d_618_258)">
<path d="M45.1603 67.4556L61.6924 56.843C62.3581 56.4151 62.6909 55.8036 62.6909 55.0084C62.6909 54.2126 62.3581 53.5954 61.6924 53.157L45.1603 42.5444C44.3862 42.0357 43.6178 41.998 42.8549 42.4315C42.0914 42.865 41.7097 43.517 41.7097 44.3874V65.6126C41.7097 66.483 42.0914 67.135 42.8549 67.5685C43.6178 68.002 44.3862 67.9643 45.1603 67.4556ZM50.0137 93C44.7754 93 39.8568 92.0029 35.2581 90.0086C30.6594 88.0143 26.6314 85.2902 23.1741 81.8364C19.7168 78.3827 16.9903 74.3585 14.9946 69.7641C12.9982 65.1696 12 60.2528 12 55.0137C12 49.7592 12.9971 44.8188 14.9914 40.1927C16.9857 35.5672 19.7098 31.5434 23.1636 28.1213C26.6173 24.6992 30.6415 21.9903 35.2359 19.9946C39.8304 17.9982 44.7472 17 49.9863 17C55.2408 17 60.1812 17.9972 64.8073 19.9914C69.4328 21.9857 73.4566 24.6922 76.8787 28.1108C80.3008 31.5294 83.0097 35.5496 85.0054 40.1716C87.0018 44.7928 88 49.731 88 54.9863C88 60.2246 87.0028 65.1432 85.0086 69.7419C83.0143 74.3406 80.3078 78.3686 76.8892 81.8259C73.4706 85.2832 69.4504 88.0097 64.8284 90.0054C60.2072 92.0018 55.269 93 50.0137 93ZM50 89.7521C59.6675 89.7521 67.8765 86.3729 74.6272 79.6145C81.3771 72.8561 84.7521 64.6513 84.7521 55C84.7521 45.3325 81.3771 37.1235 74.6272 30.3728C67.8765 23.6229 59.6675 20.2479 50 20.2479C40.3487 20.2479 32.1439 23.6229 25.3855 30.3728C18.6271 37.1235 15.2479 45.3325 15.2479 55C15.2479 64.6513 18.6271 72.8561 25.3855 79.6145C32.1439 86.3729 40.3487 89.7521 50 89.7521Z" fill="url(#paint0_linear_618_258)"/>
<path d="M49.9863 16C55.371 16 60.4466 17.0227 65.2031 19.0732C69.9396 21.1154 74.0699 23.8919 77.585 27.4033C81.1002 30.9149 83.8801 35.0422 85.9238 39.7754C87.9766 44.5272 89 49.601 89 54.9863C89 60.3553 87.977 65.4097 85.9258 70.1396C83.8837 74.8484 81.109 78.9812 77.6006 82.5293C74.0887 86.081 69.96 88.8791 65.2246 90.9238C60.4728 92.9766 55.399 94 50.0137 94C44.6447 94 39.5903 92.977 34.8604 90.9258C30.1495 88.8829 26.0162 86.0887 22.4678 82.5439C18.9193 78.9991 16.1217 74.869 14.0771 70.1621C12.0237 65.4363 11 60.3833 11 55.0137C11 49.629 12.0227 44.5534 14.0732 39.7969C16.1164 35.0582 18.912 30.9266 22.46 27.4111C26.0045 23.8991 30.1332 21.1207 34.8379 19.0771C39.5637 17.0237 44.6167 16 49.9863 16ZM50 21.248C40.6106 21.248 32.6605 24.5196 26.0918 31.0801C19.5238 37.6406 16.248 45.5944 16.248 55C16.248 64.389 19.524 72.3384 26.0928 78.9072C32.6616 85.476 40.611 88.752 50 88.752C59.4056 88.752 67.3594 85.4762 73.9199 78.9082C80.4804 72.3395 83.752 64.3894 83.752 55C83.752 45.594 80.4797 37.6405 73.9199 31.0801C67.3595 24.5203 59.406 21.248 50 21.248ZM44.0527 41.1357C44.6484 41.165 45.2043 41.3766 45.71 41.709H45.709L62.2324 52.3154L62.2422 52.3223C63.1883 52.9453 63.6914 53.876 63.6914 55.0088C63.6913 56.1421 63.1869 57.0717 62.2334 57.6846H62.2324L45.709 68.29L45.71 68.291C45.2043 68.6234 44.6484 68.835 44.0527 68.8643C43.4536 68.8936 42.8839 68.7353 42.3613 68.4385C41.2882 67.8292 40.71 66.8465 40.71 65.6123V44.3877C40.71 43.2306 41.2182 42.2951 42.166 41.6807L42.3613 41.5615C42.8839 41.2647 43.4536 41.1064 44.0527 41.1357Z" stroke="var(--stroke-0, white)" stroke-width="2"/>
</g>
</g>
<defs>
<filter id="filter0_d_618_258" x="2" y="10" width="96" height="96" filterUnits="userSpaceOnUse" color-interpolation-filters="sRGB">
<feFlood flood-opacity="0" result="BackgroundImageFix"/>
<feColorMatrix in="SourceAlpha" type="matrix" values="0 0 0 0 0 0 0 0 0 0 0 0 0 0 0 0 0 0 127 0" result="hardAlpha"/>
<feOffset dy="3"/>
<feGaussianBlur stdDeviation="4"/>
<feComposite in2="hardAlpha" operator="out"/>
<feColorMatrix type="matrix" values="0 0 0 0 0 0 0 0 0 0 0 0 0 0 0 0 0 0 1 0"/>
<feBlend mode="normal" in2="BackgroundImageFix" result="effect1_dropShadow_618_258"/>
<feBlend mode="normal" in="SourceGraphic" in2="effect1_dropShadow_618_258" result="shape"/>
</filter>
<linearGradient id="paint0_linear_618_258" x1="50" y1="93" x2="50" y2="12" gradientUnits="userSpaceOnUse">
<stop stop-color="#2AB0E7"/>
<stop offset="1" stop-color="#176281"/>
</linearGradient>
</defs>
</svg>
